HIERARCHY
ROOT Hips
{
    OFFSET   0.000000   0.000000   0.000000
    CHANNELS 6 Xposition Yposition Zposition Zrotation Xrotation Yrotation
    JOINT Chest
    {
        OFFSET   0.000000   8.007230   0.000000
        CHANNELS 3 Zrotation Xrotation Yrotation
        JOINT Chest2
        {
            OFFSET   0.000000  22.077100   0.000000
            CHANNELS 3 Zrotation Xrotation Yrotation
            JOINT Neck
            {
                OFFSET   0.000000  23.255100   0.000000
                CHANNELS 3 Zrotation Xrotation Yrotation
                JOINT Head
                {
                    OFFSET   0.000000  14.370100   1.956600
                    CHANNELS 3 Zrotation Xrotation Yrotation
                    End Site
                    {
                        OFFSET   0.000000  19.566000   0.000000
                    }
                }
            }
            JOINT LeftCollar
            {
                OFFSET   3.911900  19.017000  -0.467063
                CHANNELS 3 Zrotation Xrotation Yrotation
                JOINT LeftShoulder
                {
                    OFFSET  10.383700   0.000000   0.000000
                    CHANNELS 3 Zrotation Xrotation Yrotation
                    JOINT LeftElbow
                    {
                        OFFSET  26.662100   0.001193   0.000980
                        CHANNELS 3 Zrotation Xrotation Yrotation
                        JOINT LeftWrist
                        {
                            OFFSET  28.869000  -0.000059  -0.000082
                            CHANNELS 3 Zrotation Xrotation Yrotation
                            JOINT LeftFinger0
                            {
                                OFFSET   2.044650  -2.323450   3.252850
                                CHANNELS 3 Zrotation Xrotation Yrotation
                                JOINT LeftFinger01
                                {
                                    OFFSET   3.088130   0.000000   0.000000
                                    CHANNELS 3 Zrotation Xrotation Yrotation
                                    JOINT LeftFinger02
                                    {
                                        OFFSET   2.639460   0.000000   0.000000
                                        CHANNELS 3 Zrotation Xrotation Yrotation
                                        End Site
                                        {
                                            OFFSET   2.582190   0.000000   0.000000
                                        }
                                    }
                                }
                            }
                            JOINT LeftFinger1
                            {
                                OFFSET   8.364480   0.000000   3.252850
                                CHANNELS 3 Zrotation Xrotation Yrotation
                                JOINT LeftFinger11
                                {
                                    OFFSET   4.646930   0.000000   0.000000
                                    CHANNELS 3 Zrotation Xrotation Yrotation
                                    JOINT LeftFinger12
                                    {
                                        OFFSET   2.323470   0.000000   0.000000
                                        CHANNELS 3 Zrotation Xrotation Yrotation
                                        End Site
                                        {
                                            OFFSET   2.273050   0.000000   0.000000
                                        }
                                    }
                                }
                            }
                            JOINT LeftFinger2
                            {
                                OFFSET   8.364490   0.000016   1.078090
                                CHANNELS 3 Zrotation Xrotation Yrotation
                                JOINT LeftFinger21
                                {
                                    OFFSET   5.111610   0.000000   0.000000
                                    CHANNELS 3 Zrotation Xrotation Yrotation
                                    JOINT LeftFinger22
                                    {
                                        OFFSET   2.788150   0.000016   0.000000
                                        CHANNELS 3 Zrotation Xrotation Yrotation
                                        End Site
                                        {
                                            OFFSET   2.727660   0.000000   0.000000
                                        }
                                    }
                                }
                            }
                            JOINT LeftFinger3
                            {
                                OFFSET   7.899780   0.000015  -1.078090
                                CHANNELS 3 Zrotation Xrotation Yrotation
                                JOINT LeftFinger31
                                {
                                    OFFSET   4.646930   0.000000   0.000000
                                    CHANNELS 3 Zrotation Xrotation Yrotation
                                    JOINT LeftFinger32
                                    {
                                        OFFSET   2.323470   0.000000   0.000000
                                        CHANNELS 3 Zrotation Xrotation Yrotation
                                        End Site
                                        {
                                            OFFSET   2.273050   0.000000   0.000000
                                        }
                                    }
                                }
                            }
                            JOINT LeftFinger4
                            {
                                OFFSET   7.435090   0.000000  -3.252850
                                CHANNELS 3 Zrotation Xrotation Yrotation
                                JOINT LeftFinger41
                                {
                                    OFFSET   3.717550   0.000000   0.000000
                                    CHANNELS 3 Zrotation Xrotation Yrotation
                                    JOINT LeftFinger42
                                    {
                                        OFFSET   1.858770   0.000000   0.000000
                                        CHANNELS 3 Zrotation Xrotation Yrotation
                                        End Site
                                        {
                                            OFFSET   1.818440   0.000000   0.000000
                                        }
                                    }
                                }
                            }
                        }
                    }
                }
            }
            JOINT RightCollar
            {
                OFFSET  -3.911910  19.017000  -0.467062
                CHANNELS 3 Zrotation Xrotation Yrotation
                JOINT RightShoulder
                {
                    OFFSET -10.383700   0.000014   0.000000
                    CHANNELS 3 Zrotation Xrotation Yrotation
                    JOINT RightElbow
                    {
                        OFFSET -26.662100   0.001225   0.001091
                        CHANNELS 3 Zrotation Xrotation Yrotation
                        JOINT RightWrist
                        {
                            OFFSET -28.869000  -0.000020  -0.000085
                            CHANNELS 3 Zrotation Xrotation Yrotation
                            JOINT RightFinger0
                            {
                                OFFSET  -2.044650  -2.323490   3.252850
                                CHANNELS 3 Zrotation Xrotation Yrotation
                                JOINT RightFinger01
                                {
                                    OFFSET  -3.088130   0.000000   0.000000
                                    CHANNELS 3 Zrotation Xrotation Yrotation
                                    JOINT RightFinger02
                                    {
                                        OFFSET  -2.639460   0.000000   0.000000
                                        CHANNELS 3 Zrotation Xrotation Yrotation
                                        End Site
                                        {
                                            OFFSET  -2.582190   0.000000   0.000000
                                        }
                                    }
                                }
                            }
                            JOINT RightFinger1
                            {
                                OFFSET  -8.364480   0.000000   3.252850
                                CHANNELS 3 Zrotation Xrotation Yrotation
                                JOINT RightFinger11
                                {
                                    OFFSET  -4.646930   0.000000   0.000000
                                    CHANNELS 3 Zrotation Xrotation Yrotation
                                    JOINT RightFinger12
                                    {
                                        OFFSET  -2.323470   0.000000   0.000000
                                        CHANNELS 3 Zrotation Xrotation Yrotation
                                        End Site
                                        {
                                            OFFSET  -2.273050   0.000000   0.000000
                                        }
                                    }
                                }
                            }
                            JOINT RightFinger2
                            {
                                OFFSET  -8.364480   0.000000   1.078090
                                CHANNELS 3 Zrotation Xrotation Yrotation
                                JOINT RightFinger21
                                {
                                    OFFSET  -5.111620   0.000000   0.000000
                                    CHANNELS 3 Zrotation Xrotation Yrotation
                                    JOINT RightFinger22
                                    {
                                        OFFSET  -2.788160   0.000000   0.000000
                                        CHANNELS 3 Zrotation Xrotation Yrotation
                                        End Site
                                        {
                                            OFFSET  -2.727660   0.000000   0.000000
                                        }
                                    }
                                }
                            }
                            JOINT RightFinger3
                            {
                                OFFSET  -7.899780   0.000000  -1.078090
                                CHANNELS 3 Zrotation Xrotation Yrotation
                                JOINT RightFinger31
                                {
                                    OFFSET  -4.646930   0.000000   0.000000
                                    CHANNELS 3 Zrotation Xrotation Yrotation
                                    JOINT RightFinger32
                                    {
                                        OFFSET  -2.323470   0.000000   0.000000
                                        CHANNELS 3 Zrotation Xrotation Yrotation
                                        End Site
                                        {
                                            OFFSET  -2.273050   0.000000   0.000000
                                        }
                                    }
                                }
                            }
                            JOINT RightFinger4
                            {
                                OFFSET  -7.435090   0.000000  -3.252850
                                CHANNELS 3 Zrotation Xrotation Yrotation
                                JOINT RightFinger41
                                {
                                    OFFSET  -3.717550   0.000000   0.000000
                                    CHANNELS 3 Zrotation Xrotation Yrotation
                                    JOINT RightFinger42
                                    {
                                        OFFSET  -1.858760   0.000000   0.000000
                                        CHANNELS 3 Zrotation Xrotation Yrotation
                                        End Site
                                        {
                                            OFFSET  -1.818440   0.000000   0.000000
                                        }
                                    }
                                }
                            }
                        }
                    }
                }
            }
        }
    }
    JOINT LeftHip
    {
        OFFSET   9.783030   0.000000   0.000000
        CHANNELS 3 Zrotation Xrotation Yrotation
        JOINT LeftKnee
        {
            OFFSET   0.000063 -41.789100   0.000608
            CHANNELS 3 Zrotation Xrotation Yrotation
            JOINT LeftAnkle
            {
                OFFSET   0.000048 -41.133200  -0.000184
                CHANNELS 3 Zrotation Xrotation Yrotation
                JOINT LeftToe
                {
                    OFFSET   0.000000  -6.358960  14.674500
                    CHANNELS 3 Zrotation Xrotation Yrotation
                    End Site
                    {
                        OFFSET   0.000000   0.000000   3.913200
                    }
                }
            }
        }
    }
    JOINT RightHip
    {
        OFFSET  -9.783030   0.000000   0.000000
        CHANNELS 3 Zrotation Xrotation Yrotation
        JOINT RightKnee
        {
            OFFSET   0.000071 -41.789100   0.001239
            CHANNELS 3 Zrotation Xrotation Yrotation
            JOINT RightAnkle
            {
                OFFSET   0.000037 -41.133200  -0.000166
                CHANNELS 3 Zrotation Xrotation Yrotation
                JOINT RightToe
                {
                    OFFSET   0.000000  -6.358960  14.674500
                    CHANNELS 3 Zrotation Xrotation Yrotation
                    End Site
                    {
                        OFFSET   0.000000   0.000000   3.913200
                    }
                }
            }
        }
    }
}
MOTION
Frames: 4
Frame Time:   0.016667
 -0.309996  89.545400  -2.013130  -2.412820  -5.706960  -5.417170   0.956638   2.660040   0.147272   1.909510   5.322150   0.250409   1.210260  -1.610000   0.043599   1.992450  -3.260310   3.653300  -5.978050  -1.339140  -0.231463 -75.017900  14.972500   3.908240  -1.452390  -3.223790 -15.968800  15.778700 -17.286400   5.278420  43.170100  32.409500 -67.604600 -23.142600   0.003835   0.001692  -6.571300   0.001522  -0.000943 -27.459700   5.222100  -9.924700 -22.838300  -0.001352   0.001540 -15.990200  -0.012867   0.000780 -28.178000   0.282179  -0.531541 -33.284700   0.001480   0.005393 -22.167600  -0.000667   0.003806 -27.904100   0.279562  -0.532948 -31.365700  -0.006656  -0.000491 -20.889500  -0.001832  -0.001254 -29.620800   0.295407  -0.524211 -44.433300  -0.009722  -0.003268 -29.592600   0.000340  -0.003699   9.507560   0.289564   4.056140  70.794900   8.525340  -7.216450  -0.909180  -4.294060  10.720700 -13.502400  -6.196650   0.288549 -39.088000  28.175100  59.187100  27.768600  -0.007933  -0.002539   8.884290  -0.000672  -0.006989  27.929300   5.413210  10.103700  23.242500   0.002804  -0.000782  16.274500  -0.005831  -0.002171  28.100800   2.515720   4.696930  33.530700   0.000156  -0.004703  22.339400  -0.003029  -0.000434  27.227000   1.295400   2.484390  28.067900   0.011530  -0.002600  18.693200  -0.009271  -0.002593  35.022200   0.240727   0.332323  52.534400  -0.000125  -0.007540  34.987900  -0.001211  -0.008992   1.300370   8.468670   2.226630   1.197200   0.117113   4.916870  -1.482430  -3.193410   1.620930   0.000000   0.000000   0.000000   4.039880   6.236170  -2.403480  -2.143940   2.869640  -4.162090  -1.144750  -4.188670   1.907340  -0.000000   0.000000   0.000000
 -0.315802  89.545500  -1.975940  -2.412580  -5.732830  -5.384030   0.956361   2.676770   0.155435   1.908570   5.355750   0.266498   1.222000  -1.601830   0.043583   2.011820  -3.243370   3.682520  -5.989100  -1.330110  -0.242323 -74.999000  14.993700   3.852490  -1.445490  -3.226830 -15.967300  15.784000 -17.292200   5.294130  43.167500  32.415900 -67.612500 -23.148600   0.003843   0.001701  -6.574280   0.001498  -0.000923 -27.459600   5.221700  -9.926610 -22.838300  -0.001340   0.001556 -15.990300  -0.012867   0.000788 -28.177900   0.282180  -0.530918 -33.295500   0.001503   0.005427 -22.174800  -0.000662   0.003832 -27.904300   0.279563  -0.532322 -31.375900  -0.006701  -0.000486 -20.896300  -0.001821  -0.001248 -29.626000   0.295407  -0.523591 -44.441100  -0.009746  -0.003237 -29.597800   0.000325  -0.003680   9.493490   0.279710   4.056700  70.757300   8.502550  -7.252150  -0.890883  -4.270090  10.713400 -13.495100  -6.187660   0.272348 -39.077700  28.198400  59.232200  27.805500  -0.007933  -0.002535   8.902760  -0.000666  -0.006982  27.933300   5.413310  10.097600  23.245900   0.002804  -0.000780  16.274500  -0.005831  -0.002165  28.101400   2.511810   4.689470  33.533300   0.000157  -0.004700  22.338800  -0.003027  -0.000433  27.225800   1.296070   2.490440  28.063900   0.011532  -0.002597  18.690600  -0.009273  -0.002592  35.019500   0.240520   0.333696  52.530500  -0.000123  -0.007537  34.985300  -0.001210  -0.008990   1.299040   8.527400   2.228710   1.195520   0.082397   4.909350  -1.486570  -3.189840   1.595030  -0.000000   0.000000   0.000000   4.047590   6.327720  -2.439970  -2.133720   2.803680  -4.181870  -1.152110  -4.189090   1.926540  -0.000000   0.000000   0.000000
 -0.324472  89.545600  -1.915030  -2.412790  -5.776200  -5.329180   0.956320   2.706120   0.170606   1.907760   5.414690   0.296408   1.243760  -1.587810   0.043558   2.047660  -3.214500   3.733460  -6.007030  -1.316310  -0.260888 -74.963900  15.028000   3.766480  -1.438590  -3.229870 -15.965900  15.790000 -17.297900   5.312450  43.164100  32.423900 -67.619100 -23.161600   0.003867   0.001714  -6.580770   0.001438  -0.000883 -27.459900   5.219120  -9.928500 -22.838300  -0.001315   0.001592 -15.990400  -0.012865   0.000811 -28.177900   0.282181  -0.526556 -33.310800   0.001562   0.005512 -22.185000  -0.000650   0.003898 -27.904400   0.279564  -0.527947 -31.391200  -0.006812  -0.000474 -20.906500  -0.001793  -0.001233 -29.635100   0.295406  -0.519247 -44.454700  -0.009800  -0.003159 -29.606800   0.000287  -0.003631   9.469500   0.265902   4.060700  70.698000   8.479200  -7.318090  -0.859130  -4.226640  10.695400 -13.484500  -6.170370   0.244645 -39.038000  28.217100  59.283800  27.868600  -0.007936  -0.002529   8.934300  -0.000653  -0.006969  27.937700   5.413480  10.087400  23.249300   0.002803  -0.000776  16.274500  -0.005831  -0.002146  28.102500   2.505700   4.678040  33.535800   0.000158  -0.004691  22.334800  -0.003023  -0.000429  27.221900   1.296730   2.499050  28.048300   0.011536  -0.002592  18.680200  -0.009276  -0.002589  35.011100   0.240314   0.337208  52.517800  -0.000120  -0.007530  34.976800  -0.001210  -0.008986   1.297500   8.612630   2.234310   1.193840   0.047681   4.891440  -1.497140  -3.186280   1.554750  -0.000000   0.000000   0.000000   4.060290   6.478240  -2.497650  -2.123670   2.695910  -4.211790  -1.159820  -4.189940   1.952630  -0.000000   0.000000  -0.000000
 -0.329165  89.545800  -1.868290  -2.414670  -5.812710  -5.287570   0.957296   2.733410   0.186386   1.908940   5.469530   0.327522   1.265710  -1.576550   0.043546   2.083680  -3.191810   3.780010  -6.020450  -1.308030  -0.277393 -74.927700  15.058900   3.712670  -1.443220  -3.222470 -15.978800  15.785300 -17.297500   5.314180  43.154300  32.423000 -67.609000 -23.180700   0.003912   0.001718  -6.590360   0.001349  -0.000837 -27.463600   5.213050  -9.917050 -22.840800  -0.001290   0.001642 -15.990400  -0.012861   0.000854 -28.177900   0.276486  -0.514039 -33.318400   0.001654   0.005641 -22.190000  -0.000628   0.004001 -27.904500   0.273931  -0.515396 -31.401100  -0.006980  -0.000455 -20.913100  -0.001752  -0.001211 -29.645600   0.289516  -0.506847 -44.470400  -0.009877  -0.003040 -29.617300   0.000230  -0.003556   9.450150   0.260631   4.076690  70.654600   8.478710  -7.385380  -0.832929  -4.178270  10.671500 -13.477900  -6.152150   0.221367 -38.997900  28.207600  59.293300  27.917500  -0.007948  -0.002525   8.958750  -0.000634  -0.006954  27.924900   5.407340  10.079500  23.238000   0.002804  -0.000771  16.266600  -0.005832  -0.002114  28.103100   2.502090   4.671850  33.515900   0.000164  -0.004676  22.319900  -0.003018  -0.000425  27.214100   1.293480   2.503250  28.013700   0.011540  -0.002585  18.657100  -0.009278  -0.002584  34.994500   0.241703   0.343004  52.492900  -0.000114  -0.007519  34.960200  -0.001208  -0.008979   1.297750   8.649290   2.244330   1.192070   0.085994   4.864750  -1.514230  -3.213680   1.529750   0.000000   0.000000   0.000000   4.069880   6.596410  -2.537140  -2.126420   2.613240  -4.228200  -1.160090  -4.190990   1.961020  -0.000000   0.000000   0.000000
